<?xml version="1.0" encoding="utf-8"?>
<!-- Generator: Adobe Illustrator 18.1.1, SVG Export Plug-In . SVG Version: 6.00 Build 0)  -->
<svg version="1.1" xmlns="http://www.w3.org/2000/svg" xmlns:xlink="http://www.w3.org/1999/xlink" x="0px" y="0px"
	 viewBox="0 0 595.3 841.9" enable-background="new 0 0 595.3 841.9" xml:space="preserve">
<g id="Layer_1" display="none">
	
		<image display="inline" overflow="visible" width="3585" height="4830" xlink:href="A8C3681ACA604696.jpg"  transform="matrix(0.1907 0 0 0.1907 -44.6124 -40.0271)">
	</image>
</g>
<g id="Layer_7">
	<path fill="#027A3E" d="M233.2,451.2c0,0,22.9-28.1,3.4-64.3l72.5,118.5l-63.8,107.2l-14.7-25.4l-14,23.8l14.4,25.1L216.3,661
		h-29.2l14.8,24.1h-29.4l15.3,24.3l-36.3,59.4H91.9l6.4-11H56.7l-0.6-11l37.3-62.5h19.9l-10.6-16l63.8-105.9h20.2l-10.3-15.1
		l5.1-9.3h20.4l-10.6-16.5L233.2,451.2z"/>
</g>
<g id="Layer_6">
	<polygon fill="#0D8241" points="197.1,513.2 220.3,473 243.6,513.2 	"/>
	<polygon fill="#0D8944" points="167.6,534.7 181.5,510.7 195.4,534.7 	"/>
	<polygon fill="#0C4E27" points="153.1,586.5 161.9,571.2 170.8,586.5 	"/>
	<polygon fill="#086936" points="136.5,612.9 132.9,619.3 142.3,635.6 155.4,612.9 	"/>
	<polygon fill="#47A94A" points="210.8,489.8 220.7,472.8 230.5,489.8 	"/>
	<polygon fill="#0D6735" points="246.2,562.9 260.6,538 274.9,562.9 	"/>
	<polygon fill="#154D26" points="274.9,562.4 260.6,587.3 246.2,562.4 	"/>
	<polygon fill="#096735" points="244.9,562.4 230.5,587.3 216.1,562.4 	"/>
	<polygon fill="#3DA34B" points="201.5,636.2 187.2,661 172.8,636.2 	"/>
	<polygon fill="#0A7B3E" points="218.9,620.4 233.2,595.5 247.6,620.4 	"/>
	<polygon fill="#0C4A24" points="259.2,586.3 244.8,611.2 230.4,586.3 	"/>
	<polygon fill="#1E9F49" points="202,635.2 216.3,610.3 230.7,635.2 	"/>
	<polygon fill="#0A7039" points="230.7,636.2 216.3,661 202,636.2 	"/>
	<polygon fill="#0A7039" points="187.6,661 202,636.2 216.3,661 	"/>
	<polygon fill="#0A7039" points="222.7,662.6 209.7,685.1 196.7,662.6 	"/>
	<polygon fill="#0A7039" points="202.7,696.9 194.2,711.6 185.7,696.9 	"/>
	<polygon fill="#0A4D26" points="142.8,684.3 156.3,660.9 169.8,684.3 	"/>
	<polygon fill="#0A4D26" points="141.5,636 155.1,612.6 168.6,636 	"/>
	<polygon fill="#0A4D26" points="173.2,635.4 186.7,612 200.2,635.4 	"/>
	<polygon fill="#0A4D26" points="186.5,612 170.8,639.4 155.1,612 	"/>
	<polygon fill="#097C3F" points="232.4,583.7 216.7,611.1 200.9,583.7 	"/>
	<polygon fill="#0F9F49" points="187.1,612 201.9,586.3 216.7,612 	"/>
	<polygon fill="#087D3F" points="216.3,610.9 201.5,636.6 186.7,610.9 	"/>
	<polygon fill="#2EA349" points="114.2,684.3 127.7,660.9 141.2,684.3 	"/>
	<polygon fill="#104D26" points="99.1,708.6 112.6,685.2 126.1,708.6 	"/>
	<polygon fill="#44A149" points="78.2,710.2 74.7,716.2 84.8,733.6 98.3,710.2 	"/>
	<polygon fill="none" stroke="#007E40" stroke-width="4" stroke-miterlimit="10" points="60.7,696.1 69.7,680.6 78.6,696.1 	"/>
	<polygon fill="#104D26" points="114.2,733.6 127.7,710.2 141.2,733.6 	"/>
	<polygon fill="#FFFFFF" points="84.8,733.6 98.3,710.2 111.8,733.6 	"/>
	<polygon fill="#104D26" points="154.7,710.2 141.2,733.6 127.7,710.2 	"/>
	<polygon fill="#3F9F47" points="143.7,734.4 158.6,708.6 173.5,734.4 	"/>
	<polygon fill="#41A54B" points="98.9,757.8 113.2,733.1 127.5,757.8 	"/>
	<polygon fill="#006636" points="126.9,758.5 112.6,783.2 98.3,758.5 	"/>
	<polygon fill="#08783D" points="95.1,759.9 80.8,784.7 66.5,759.9 	"/>
	<polygon fill="#134D26" points="49.8,757.8 58.9,742 68.1,757.8 	"/>
	<polygon fill="#3FA047" points="123.7,795.1 103.4,830.2 83.2,795.1 	"/>
	<polygon fill="#0E8040" points="127.7,807.4 142,782.5 156.4,807.4 	"/>
	<polygon fill="#07753C" points="142,733.1 127.7,757.8 113.4,733.1 	"/>
	<polygon fill="#07753C" points="170.6,733.6 156.3,758.4 142,733.6 	"/>
	<polygon fill="#07753C" points="126.9,759.2 141.2,734.4 155.5,759.2 	"/>
	<polygon fill="#2A9D48" points="187.9,709.4 173.5,734.4 159.1,709.4 	"/>
	<polygon fill="#0A7B3E" points="245.4,611.3 231,636.2 216.7,611.3 	"/>
	<polygon fill="#007D40" points="257.6,487.1 247.8,504.1 238,487.1 	"/>
	<polygon fill="#0A6534" points="238,479.3 245.5,466.2 253.1,479.3 	"/>
	<polygon fill="#0A6534" points="257.2,446.9 245.4,467.3 233.5,446.9 	"/>
	<polygon fill="#104D26" points="244.8,514.2 231,538 217.3,514.2 	"/>
	<polygon fill="#104D26" points="231,538 244.8,514.2 258.5,538 	"/>
	<polygon fill="#3BA44A" points="303.6,514.4 289.9,538.2 276.1,514.4 	"/>
	<polygon fill="#0C4A24" points="275,512.7 288.7,488.8 302.5,512.7 	"/>
	<polygon fill="#076E38" points="288.7,488.8 275,512.7 261.2,488.8 	"/>
	<polygon fill="#087E3F" points="247.4,512.7 261.1,488.8 274.9,512.7 	"/>
	<polygon fill="#0A4A24" points="129.1,515.3 148.7,481.3 168.3,515.3 	"/>
	<polygon fill="#0A4A24" points="137.7,519.8 130.1,532.9 122.6,519.8 	"/>
	<polygon fill="none" stroke="#0A4A24" stroke-width="2" stroke-miterlimit="10" points="105.5,549 117.7,527.7 130,549 	"/>
	<polygon fill="#40A649" points="216.3,562.1 201.5,587.7 186.7,562.1 	"/>
	<polygon fill="#0C7F40" points="187.2,561.6 202,535.9 216.8,561.6 	"/>
	<polygon fill="#0C7F40" points="215.7,561.6 230.5,535.9 245.3,561.6 	"/>
	<polygon fill="#0C7F40" points="260.2,537.6 245.4,563.3 230.6,537.6 	"/>
	<polygon fill="#0C7F40" points="231.5,537.6 216.7,563.3 201.9,537.6 	"/>
	<polygon fill="#43A84F" points="196,513.5 191.3,521.5 201.5,539.1 216.3,513.5 	"/>
</g>
<g id="Layer_5">
	<path fill="#E9A123" d="M153.8,778.1h80.6c0,0,33.9-3.1,49.2-26.5c15.2-23.4,37.3-61.6,37.3-61.6l36.1-61.7c0,0,8.9-24.7-5.7-46.6
		c-14.7-21.8-41.2-61.9-41.2-61.9L153.8,778.1z"/>
</g>
<g id="Layer_4">
	<polygon fill="#FFFFFF" points="263.2,645.1 249.1,669.4 235.1,645.1 	"/>
	<polygon fill="#E9A123" points="361.9,548.8 342.4,582.7 322.8,548.8 	"/>
	<polygon fill="#E8C640" points="369.8,560.4 350.2,594.3 330.6,560.4 	"/>
	<polygon fill="#E49E25" points="304.3,620.3 276.6,668.3 248.9,620.3 	"/>
	<polygon fill="#E28C25" points="249.7,668.3 263,645.3 276.3,668.3 	"/>
	<polygon fill="#E6C84D" points="279.6,668.7 292.8,645.8 306.1,668.7 	"/>
	<polygon fill="#E3A025" points="263.8,595.8 277.8,571.6 291.8,595.8 	"/>
	<polygon fill="#E19226" points="278.9,571.6 292.8,547.3 306.8,571.6 	"/>
	<polygon fill="#E6BF3E" points="261.9,542.5 275.9,518.3 289.9,542.5 	"/>
	<polygon fill="#E3A325" points="308.3,571.6 322.3,547.3 336.3,571.6 	"/>
	<polygon fill="#E9A123" points="292.4,547.3 312,513.4 331.6,547.3 	"/>
	<polygon fill="#DE7226" points="292.8,595.8 306.8,571.6 320.8,595.8 	"/>
	<polygon fill="#DE7226" points="306.4,571.6 292.4,595.8 278.4,571.6 	"/>
	<polygon fill="#E6C84D" points="291.8,595.8 277.8,620.1 263.8,595.8 	"/>
	<polygon fill="#E89F23" points="242,613.8 256,589.6 270,613.8 	"/>
	<polygon fill="#E8A023" points="189.1,620.1 174.4,645.4 159.8,620.1 	"/>
	<polygon fill="#FFFFFF" points="249.2,620.1 263.2,595.8 277.2,620.1 	"/>
	<polygon fill="#FFFFFF" points="320.8,548 306.8,572.3 292.8,548 	"/>
	<polygon fill="#DF7026" points="306.8,620.1 292.8,644.3 278.9,620.1 	"/>
	<polygon fill="#DF7026" points="320.8,644.3 306.8,668.5 292.8,644.3 	"/>
	<polygon fill="#E38E25" points="292.8,644.3 306.8,620.1 320.8,644.3 	"/>
	<polygon fill="#DD8C26" points="308.1,669.5 322.1,645.2 336.1,669.5 	"/>
	<polygon fill="#E89B23" points="354.4,649.7 341.3,672.4 328.2,649.7 	"/>
	<polygon fill="#FFFFFF" points="349.1,645.1 336.1,667.7 323,645.1 	"/>
	<polygon fill="#FFFFFF" points="333.9,669.4 320.8,692.1 307.8,669.4 	"/>
	<polygon fill="#D76727" points="376.1,672.4 362.3,696.2 348.5,672.4 	"/>
	<polygon fill="#EDA122" points="367.6,666.2 381.4,642.3 395.1,666.2 	"/>
	<polygon fill="#D96626" points="342.2,694.4 347.4,685.3 352.6,694.4 	"/>
	<polygon fill="#E8BF46" points="345,678 331.1,702 317.3,678 	"/>
	<polygon fill="#EBC249" points="292.1,694.4 278.2,718.4 264.3,694.4 	"/>
	<polygon fill="#FFFFFF" points="249.1,718.4 263,694.4 276.9,718.4 	"/>
	<polygon fill="#E48625" points="310.8,740.6 304.5,751.6 298.1,740.6 	"/>
	<polygon fill="#E48625" points="310,746.9 321.1,727.6 332.2,746.9 	"/>
	<polygon fill="#DB6D26" points="412.8,765.2 428.4,738.2 444,765.2 	"/>
	<polygon fill="#E08D27" points="453.2,770.2 443.8,786.4 434.5,770.2 	"/>
	<polygon fill="#E1B326" points="423.9,767.8 416.1,781.3 408.3,767.8 	"/>
	<polygon fill="none" stroke="#E48625" stroke-width="2" stroke-miterlimit="10" points="321.3,761 305.9,787.7 290.5,761 	"/>
	<polygon fill="none" stroke="#DC9B27" stroke-width="4" stroke-miterlimit="10" points="226.9,817 242.3,790.3 257.7,817 	"/>
	<polygon fill="#E8C449" points="265,742 278,719.4 291,742 	"/>
	<polygon fill="#E18B26" points="279,717.7 292.1,695.1 305.1,717.7 	"/>
	<polygon fill="#E18B26" points="304.9,717.7 291,741.7 277.1,717.7 	"/>
	<polygon fill="#DEA027" points="278.6,717.7 263.8,743.4 248.9,717.7 	"/>
	<polygon fill="#E4C849" points="248.9,717.7 234,743.4 219.2,717.7 	"/>
	<polygon fill="#E4C849" points="176,741.4 190.6,717.4 204.1,742 	"/>
	<polygon fill="#E59025" points="161.7,766.1 174.7,743.5 187.7,766.1 	"/>
	<polygon fill="#E19A26" points="247.1,770.8 234,793.4 221,770.8 	"/>
	<polygon fill="#E4C849" points="205.1,693.8 219.2,669.5 233.2,693.8 	"/>
	<polygon fill="#E36F25" points="219.2,669.5 233.2,645.2 247.3,669.5 	"/>
	<polygon fill="#E36F25" points="247.3,669.5 233.2,693.8 219.2,669.5 	"/>
	<polygon fill="#E28F25" points="261.1,637.3 247.1,661.6 233,637.3 	"/>
	<polygon fill="#ECC84D" points="240,636 248.9,620.5 257.9,636 	"/>
	<polygon fill="#DA6927" points="234,743.4 248.9,717.7 263.8,743.4 	"/>
	<polygon fill="#DA6927" points="249.7,767.8 263.8,743.4 205,743.4 219.1,767.8 	"/>
</g>
<g id="Layer_9">
	<path fill="#CE3027" d="M178.7,66H254l5.6,10.2l4.5-7.9c0,0,21.1,6.5,36.4,32c15.4,25.5,17,27.1,17,27.1L305,149.1h25.9l2.3,3.5
		l-14.7,22h27.6l16.6,27.2L348,223.7h30.9l-1.4,3.3L479.6,399L466.5,419H482c0,0,2,12.1-18.1,45.7c-20.1,33.6-15.5,26.8-15.5,26.8
		l-26.4,0.6l-29.6-48.4l14.5-25.2h-28.4l-89.4-146.8l15.7-23.4h-29.2L230,174.6l14.9-24h-28.8l-43.9-73.4L178.7,66z"/>
</g>
<g id="Layer_8">
	<polygon fill="#F9F3F5" points="334.5,296.8 363,247.4 391.5,296.8 	"/>
	<polygon fill="#D12A27" points="333.3,171.3 348,145.8 362.7,171.3 	"/>
	<polygon fill="#D12A27" points="392.2,100.4 377.5,125.9 362.7,100.4 	"/>
	<polygon fill="#C42B27" points="278.1,49 263.4,74.5 248.7,49 	"/>
	<polygon fill="#8A181B" points="246.2,51.6 231.4,77.2 216.7,51.6 	"/>
	<polygon fill="#8A181B" points="290.3,76.3 275.5,101.8 260.8,76.3 	"/>
	<polygon fill="#8A181B" points="274.4,100.4 259.7,125.9 244.9,100.4 	"/>
	<polygon fill="#8A181B" points="259.7,125.9 274.4,100.4 289.1,125.9 	"/>
	<polygon fill="#8A181B" points="260.8,174.6 275.5,149.1 290.3,174.6 	"/>
	<polygon fill="#8A181B" points="305,149.1 290.3,174.6 275.5,149.1 	"/>
	<polygon fill="#ED3C24" points="318.6,125.8 303.8,151.3 289.1,125.8 	"/>
	<polygon fill="#8A181B" points="346.2,174.6 332.4,198.5 318.6,174.6 	"/>
	<polygon fill="#8A181B" points="332.4,198.5 346.2,174.6 360,198.5 	"/>
	<polygon fill="#B92626" points="332.4,199.8 318.6,223.7 304.8,199.8 	"/>
	<polygon fill="#721812" points="305.7,247.7 319.5,223.8 333.3,247.7 	"/>
	<polygon fill="#721812" points="298.7,250.1 284.9,274.1 271.1,250.1 	"/>
	<polygon fill="#721812" points="290.2,272.9 304,248.9 317.8,272.9 	"/>
	<polygon fill="#B52625" points="362.1,247.7 348.3,271.6 334.5,247.7 	"/>
	<polygon fill="#DF3626" points="377.1,223.2 363.3,247.1 349.5,223.2 	"/>
	<polygon fill="#DF3626" points="360.9,199.2 347.1,223.1 333.3,199.2 	"/>
	<polygon fill="#DF3626" points="346.1,275.5 360,251.6 373.8,275.5 	"/>
	<polygon fill="#DF3626" points="374.7,277.2 360.9,301.1 347.1,277.2 	"/>
	<polygon fill="#B72325" points="362.1,296.8 348.3,320.7 334.5,296.8 	"/>
	<polygon fill="#B72325" points="334.5,296.8 348.3,272.9 362.1,296.8 	"/>
	<polygon fill="#971C1F" points="334.5,296.8 320.7,320.7 306.9,296.8 	"/>
	<polygon fill="#901A1D" points="378.9,320.7 392.7,296.8 406.5,320.7 	"/>
	<polygon fill="#8F1D1C" points="408.9,369 422.7,345 436.5,369 	"/>
	<polygon fill="#8F1D1C" points="378.6,418.4 392.4,394.5 406.2,418.4 	"/>
	<polygon fill="#981C1F" points="420,394.2 406.2,418.1 392.4,394.2 	"/>
	<polygon fill="#981C1F" points="391.4,425.8 377.6,449.7 363.8,425.8 	"/>
	<polygon fill="#981C1F" points="421.9,443.2 436.4,418.1 450.9,443.2 	"/>
	<polygon fill="#EF3D23" points="479.3,397.7 464,371.2 436.4,419 467,419 	"/>
	<polygon fill="#981C1F" points="407.4,468.2 421.9,443.2 436.4,468.2 	"/>
	<polygon fill="#981C1F" points="436.4,468.2 450.9,443.2 465.3,468.2 	"/>
	<polygon fill="#981C1F" points="436.4,468.2 421.9,493.3 407.4,468.2 	"/>
	<polygon fill="#EF3C26" points="450.9,443.2 436.4,468.2 421.9,443.2 	"/>
	<polygon fill="#BC2926" points="452.6,498.7 439.9,520.7 427.2,498.7 	"/>
	<polygon fill="#CF2D27" points="496.6,490.2 505.5,474.8 514.5,490.2 	"/>
	<polygon fill="#951C1E" points="522.5,454.8 511,474.8 499.4,454.8 	"/>
	<polygon fill="#951C1E" points="598.8,492.1 584.3,517.1 569.9,492.1 	"/>
	<polygon fill="#CC3627" points="554.3,566.1 568.8,541.1 583.2,566.1 	"/>
	<polygon fill="none" stroke="#951C1E" stroke-width="2" stroke-miterlimit="10" points="499.6,463.5 480.7,496.3 461.8,463.5 	"/>
	<polygon fill="#CC2D27" points="481.2,443.2 495.5,418.4 509.8,443.2 	"/>
	<polygon fill="#BC2726" points="550.7,421.5 540.1,439.7 529.6,421.5 	"/>
	<polygon fill="#C83527" points="529.6,366.1 540.1,347.9 550.7,366.1 	"/>
	<polygon fill="#C83527" points="448.9,342.2 462.7,318.4 476.5,342.2 	"/>
	<polygon fill="#C83527" points="492.9,324 481.6,343.5 470.4,324 	"/>
	<polygon fill="#C83527" points="455.5,296.8 439.5,324.5 423.5,296.8 	"/>
	<polygon fill="#8D191C" points="408.4,272.1 422.5,247.8 436.5,272.1 	"/>
	<polygon fill="none" stroke="#D13327" stroke-width="3" stroke-miterlimit="10" points="449.9,228.2 434.2,255.6 418.4,228.2 	"/>
	<polygon fill="none" stroke="#C83527" stroke-width="3" stroke-miterlimit="10" points="477.4,353.2 484.4,341.2 491.3,353.2 	"/>
	<polygon fill="#8F1D1C" points="449.8,345 436,369 422.2,345 	"/>
	<polygon fill="#ED3C24" points="422.2,345 434.9,323.1 447.6,345 	"/>
	<polygon fill="#ED3C24" points="422.1,345.6 407.8,370.4 393.4,345.6 	"/>
	<polygon fill="#ED3C24" points="349,369.9 363.3,345 377.6,369.9 	"/>
	<polygon fill="#FAFBFA" points="378.9,320.7 363.9,346.8 348.8,320.7 	"/>
	<polygon fill="#8F1D1C" points="433.4,321.1 408.4,321.1 422.2,345 434.7,323.4 	"/>
	<polygon fill="#901A1D" points="349.5,320.7 363.3,296.8 377.1,320.7 	"/>
	<polygon fill="#901A1D" points="403.2,285.8 389.4,309.7 375.6,285.8 	"/>
	<polygon fill="#C93027" points="390.6,296.8 376.8,320.7 363,296.8 	"/>
	<polygon fill="#FBF9F9" points="304.8,198.5 290.2,223.8 275.5,198.5 	"/>
	<polygon fill="#B12625" points="259.8,175.4 245.7,199.8 231.6,175.4 	"/>
	<polygon fill="#D03427" points="238.9,154 225,178 211.1,154 	"/>
	<polygon fill="#AE2424" points="259.6,125.9 245.7,150 231.8,125.9 	"/>
	<polygon fill="#AE2424" points="230,126.5 216.2,150.6 202.3,126.5 	"/>
	<polygon fill="#AE2424" points="217.1,150.6 231,126.5 244.9,150.6 	"/>
	<polygon fill="#EC3C24" points="245.8,101.1 230.6,127.6 215.3,101.1 	"/>
	<polygon fill="#EC3C24" points="245.6,101.8 260.8,75.4 276.1,101.8 	"/>
	<polygon fill="#C93027" points="354.6,219.5 367.3,198 380.1,219.5 	"/>
	<polygon fill="#B32525" points="230,77.2 215.3,102.7 200.6,77.2 	"/>
	<polygon fill="#DB3327" points="183.3,113.2 198,87.7 212.7,113.2 	"/>
	<polygon fill="#8A181B" points="178.7,66 172.2,77.2 201.7,77.2 195.3,66 	"/>
	<polygon fill="#991D1F" points="496.2,77.5 511,52 525.7,77.5 	"/>
	<polygon fill="#921A1D" points="363.3,344.6 349.2,369 335.1,344.6 	"/>
	<polygon fill="#D22B27" points="370.3,324.3 353,354.2 335.8,324.3 	"/>
</g>
<g id="Layer_3">
	<path fill="#4765A7" d="M429.3,519.2L313.9,324.7H285l14.2-24.6L160.8,68.4h-47.1L109,78.9H64v10.6l32.9,55.4l10.5-18.2l15.5,26.9
		h-20.8L290.6,471h23.6l-11.6,20.1l30.7,51.7h25L346,564.3c0,0,17.3,15.2,17.8,30s-4.2,40.1-4.2,40.1l40.8-66.5l-13.6-23.6h28
		L429.3,519.2z M210.9,250.6l-0.5,0.9l-14.2-24.6l27.5,0l0.9-1.5l14.6,25.2H210.9z M298.5,397.5l-14-24.3l28,0L298.5,397.5z"/>
</g>
<g id="Layer_2">
	<polygon fill="#4063A4" points="71.9,43.4 51.8,78.3 31.6,43.4 	"/>
	<polygon fill="#2D4C91" points="16.8,40 28.3,20.6 39.8,40 	"/>
	<polygon fill="#49659C" points="122.9,47.2 108.5,72.2 94,47.2 	"/>
	<polygon fill="#4399CC" points="83.3,124.6 108.2,81.5 133.1,124.6 	"/>
	<polygon fill="#4564A3" points="81.8,150 97.3,123.1 112.8,150 	"/>
	<polygon fill="#203567" points="138,127.7 151.5,104.3 165.1,127.7 	"/>
	<polygon fill="#22366C" points="151.5,104.3 138,127.7 124.5,104.3 	"/>
	<polygon fill="#2F4F8A" points="165.9,128.4 152.3,151.9 138.8,128.4 	"/>
	<polygon fill="#223266" points="165.1,178.4 151.5,201.8 138,178.4 	"/>
	<polygon fill="#315189" points="108.2,177.6 121.7,154.1 135.2,177.6 	"/>
	<polygon fill="#1E3565" points="167.2,178.4 180.7,154.9 194.2,178.4 	"/>
	<polygon fill="#31518B" points="194.2,178.4 180.7,201.8 167.2,178.4 	"/>
	<polygon fill="#31528F" points="185.2,152.6 198,130.5 210.7,152.6 	"/>
	<polygon fill="#2D548D" points="179.8,249.3 169.9,266.6 160,249.3 	"/>
	<polygon fill="#4265A6" points="136.4,275.5 151.2,249.9 166,275.5 	"/>
	<polygon fill="#21366A" points="147.7,281.5 134.9,303.6 122.2,281.5 	"/>
	<polygon fill="#4666A6" points="78.2,275.2 63.2,301.1 48.3,275.2 	"/>
	<polygon fill="#4666A6" points="59.4,312 74.2,287 88.9,312 	"/>
	<polygon fill="#30518A" points="119,270.8 127.7,256 136.4,270.8 	"/>
	<polygon fill="none" stroke="#30518A" stroke-width="5" stroke-miterlimit="10" points="67.1,214.6 82.2,189.1 97.2,214.6 	"/>
	<polygon fill="#3D689B" points="126.9,250.8 122.2,258.8 117.5,250.8 	"/>
	<polygon fill="#3B9AD3" points="210.5,202.6 195.9,227.8 181.3,202.6 	"/>
	<polygon fill="#3B9AD3" points="145.5,226.4 165.1,226.4 150.7,201.6 140.9,218.5 	"/>
	<polygon fill="#1F3565" points="268.7,251.3 254.7,275.5 240.8,251.3 	"/>
	<polygon fill="#2E4F8A" points="240.5,251.3 254.5,227.1 268.5,251.3 	"/>
	<polygon fill="#305581" points="269.8,234.2 278.9,218.5 287.9,234.2 	"/>
	<polygon fill="#419AD4" points="226,275.3 240,251 254,275.3 	"/>
	<polygon fill="#3E97CE" points="196.1,275.3 210.6,250.1 225.1,275.3 	"/>
	<polygon fill="#21366A" points="209,300 199.1,317.1 189.2,300 	"/>
	<polygon fill="#30508D" points="268.9,300 255,324.1 241,300 	"/>
	<polygon fill="#1D3665" points="283.4,324.5 269,299.5 240.5,348.7 269.5,348.7 	"/>
	<polygon fill="#30508B" points="227.1,324.1 241,300 255,324.1 	"/>
	<polygon fill="#4666A6" points="294.1,317.1 308.7,291.8 323.3,317.1 	"/>
	<polygon fill="#4666A6" points="268.4,348.6 254.5,372.7 240.6,348.6 	"/>
	<polygon fill="#409DD1" points="284.5,421.6 298.5,397.4 312.4,421.6 	"/>
	<polygon fill="#33518A" points="185.9,350.7 200.3,325.7 214.8,350.7 	"/>
	<polygon fill="#305594" points="125.1,405.6 139.6,380.6 154,405.6 	"/>
	<polygon fill="#263B7B" points="105.3,409.3 112.1,397.6 118.8,409.3 	"/>
	<polygon fill="#325D92" points="131.2,411.9 124.4,423.6 117.6,411.9 	"/>
	<polygon fill="#10518C" points="220.4,352.7 214.8,362.5 209.1,352.7 	"/>
	<polygon fill="#4666A6" points="284.5,371.7 298.5,347.5 312.5,371.7 	"/>
	<polygon fill="#4399D4" points="247.2,398.3 266.3,398.3 252.3,374.1 242.8,390.6 	"/>
	<polygon fill="#4666A6" points="221.6,374.6 235.6,350.3 249.6,374.6 	"/>
	<polygon fill="#375091" points="298.5,398 284.5,422.3 270.5,398 	"/>
	<polygon fill="#2E5490" points="254.5,423 268.5,398.8 282.5,423 	"/>
	<polygon fill="#1D3665" points="235.6,446.2 252.9,416.3 270.1,446.2 	"/>
	<polygon fill="#3C9DD5" points="371.7,421.6 357.7,445.8 343.7,421.6 	"/>
	<polygon fill="#4698D2" points="357.2,398 343.1,421 329,398 	"/>
	<polygon fill="#3F9CD7" points="298.6,397.3 312.6,373 326.6,397.3 	"/>
	<polygon fill="#30518C" points="401.4,472 388.2,494.9 375,472 	"/>
	<polygon fill="#3E96CF" points="429.3,519.2 416.1,542 402.9,519.2 	"/>
	<polygon fill="#47619E" points="402.9,519.2 416.1,496.3 429.3,519.2 	"/>
	<polygon fill="#1F3769" points="388.2,494.9 401.4,472 414.7,494.9 	"/>
	<polygon fill="#213366" points="414.7,494.9 401.4,517.7 388.2,494.9 	"/>
	<polygon fill="#30508B" points="355.6,494.9 342.4,517.7 329.2,494.9 	"/>
	<polygon fill="#1E3565" points="372,519.2 356.9,545.2 341.9,519.2 	"/>
	<polygon fill="#2F4F8A" points="356.9,545.8 372,519.8 387,545.8 	"/>
	<polygon fill="#1E3565" points="341.9,519.2 332.3,535.7 322.7,519.2 	"/>
	<polygon fill="#468BC5" points="356.8,535.9 347.1,552.8 337.4,535.9 	"/>
	<polygon fill="#468BC5" points="372.8,568 386.8,543.8 400.8,568 	"/>
	<polygon fill="#4666A6" points="425.3,548.8 410.2,574.8 395.2,548.8 	"/>
	<polygon fill="#3D629D" points="465.3,573.1 452.7,595 440,573.1 	"/>
	<polygon fill="none" stroke="#3E5B93" stroke-width="3" stroke-miterlimit="10" points="456.1,539.9 441.3,565.4 426.6,539.9 	"/>
	<polygon fill="#244482" points="426.6,578.2 432.4,568.2 438.2,578.2 	"/>
	<polygon fill="#4267A4" points="525.4,495.7 510.7,521.2 495.9,495.7 	"/>
	<polygon fill="#4666A6" points="327.6,347 313,372.2 298.5,347 	"/>
	<polygon fill="#4666A6" points="297.9,347.5 312.5,322.2 327.1,347.5 	"/>
	<polygon fill="#334F91" points="328.5,398 343.1,372.7 357.7,398 	"/>
	<polygon fill="#4666A6" points="344.1,420.9 357.3,398 370.5,420.9 	"/>
	<polygon fill="#4666A6" points="356.3,446.9 343.2,469.7 330,446.9 	"/>
	<polygon fill="#203466" points="327.1,447.2 313.9,470 300.7,447.2 	"/>
	<polygon fill="#203466" points="313.9,469.7 327.1,446.9 340.2,469.7 	"/>
	<polygon fill="#4793CB" points="302.5,491.1 313.2,472.5 323.9,491.1 	"/>
	<polygon fill="#436D9E" points="292.2,451.2 277.9,475.9 263.6,451.2 	"/>
	<polygon fill="#436D9E" points="293,471 313,471 298.8,446.2 288.7,463.6 	"/>
	<polygon fill="#4793CB" points="323.8,491.1 302.5,491.1 316.9,516.1 327.6,497.6 	"/>
	<polygon fill="#203567" points="143.9,68.4 137.8,78.9 168.9,78.9 162.8,68.4 	"/>
	<polygon fill="#354E8C" points="221.3,213.4 207.1,238 192.9,213.4 	"/>
	<polygon fill="#21356A" points="208.2,259.4 222.3,234.9 236.5,259.4 	"/>
	<polygon fill="#203668" points="159.3,249.5 179.8,249.5 166.2,226.1 155.9,243.9 	"/>
	<polygon fill="#2C5288" points="121,104.8 96.1,147.9 71.2,104.8 	"/>
</g>
</svg>
