<?xml version="1.0" encoding="utf-8"?>
<!-- Generator: Adobe Illustrator 18.0.0, SVG Export Plug-In . SVG Version: 6.00 Build 0)  -->
<!DOCTYPE svg PUBLIC "-//W3C//DTD SVG 1.1//EN" "http://www.w3.org/Graphics/SVG/1.1/DTD/svg11.dtd">
<svg version="1.1" id="Layer_1" xmlns="http://www.w3.org/2000/svg" xmlns:xlink="http://www.w3.org/1999/xlink" x="0px" y="0px"
	 viewBox="0 0 523 523" enable-background="new 0 0 523 523" xml:space="preserve">
<rect x="144.3" y="122.5" fill="#4385F6" width="58.7" height="190.7"/>
<path fill="#4FC2F8" d="M232.1,151.1h58.7l-87.7,162h-58.7L232.1,151.1L232.1,151.1z"/>
<g transform="matrix(1,0,0,1,176.267,0)">
	<rect x="144.3" y="122.5" fill="#01C2A7" width="58.7" height="190.7"/>
</g>
<path fill="#1EE8B6" d="M232.1,151.1h58.7l88.5,162h-58.7L232.1,151.1L232.1,151.1z"/>
<path fill="#4385F6" d="M91.5,381.4c-11.7-1.2-18.8-8.3-20-20V75.6c1.2-11.8,8.4-19,20.2-20l82.2,0.9l-0.4,40l-61.9-0.7v245.7h62.2
	v40C146.3,381.4,118.9,381.4,91.5,381.4L91.5,381.4z"/>
<g transform="matrix(-1,3.21625e-16,-3.21625e-16,-1,523.811,437.014)">
	<path fill="#01C1A8" d="M91.5,381.4c-11.7-1.2-18.8-8.3-20-20V75.6c1.2-11.8,8.4-19,20.2-20l82.2,0.9l-0.4,40l-61.9-0.7v245.7h62.2
		v40C146.3,381.4,118.9,381.4,91.5,381.4L91.5,381.4z"/>
</g>
</svg>
